# xmcd
# 
# Track frame offsets:
#     150
#     10825
#     24453
#     46005
#     67139
#     84832
#     100310
#     120545
#     135441
#     154924
#     174142
#     188568
#     211106
#     246715
# 
# Disc length: 3580
# 
# Revision: 0
# Processed by: cddbd v1.5.2PL0 Copyright (c) Steve Scherf et al.
# Submitted via: BonkEnc v1.0.8
# 
DISCID=ac0dfa0e
DTITLE=Backyard Babies - Diesel And Power
DYEAR=1994
DGENRE=Punk Rock
TTITLE0=Smell The Magic
TTITLE1=Bad To The Bone
TTITLE2=Strange Kind Of Attitude
TTITLE3=Diesel And Power
TTITLE4=Love
TTITLE5=Wild Dog
TTITLE6=Fly Like A Little...
TTITLE7=Electric Suzy
TTITLE8=Kickin' Up Dust
TTITLE9=Should I Be Damned
TTITLE10=Fill Up This Bad Machine
TTITLE11=Heaven In Hell
TTITLE12=Shame
TTITLE13=Lies
EXTD=
EXTT0=
EXTT1=
EXTT2=
EXTT3=
EXTT4=
EXTT5=
EXTT6=
EXTT7=
EXTT8=
EXTT9=
EXTT10=
EXTT11=
EXTT12=
EXTT13=
PLAYORDER=
